<svg aria-hidden="true" style="position:absolute;width:0;height:0" xmlns="http://www.w3.org/2000/svg" overflow="hidden"><defs><symbol id="icon-services8" viewBox="0 0 32 32"><path d="M3.657 4.114v1.099h.001v2.096a2.286 2.286 0 002.286 2.286h5.973l-.013 7.493c-.001.476.222.925.603 1.21l3.156 2.368v5.677h-.013v1.114h13.116v-1.114H16.762v-5.659l3.142-2.386c.375-.284.595-.727.596-1.197l.013-7.507h5.966a2.286 2.286 0 002.286-2.286V5.212h.003V4.113H3.656zm1.115 4.367V5.213h22.881v3.268H4.772zm8.243 8.832l.016-7.718h6.373l-.01 4.883h-4.099v1.114h4.097l-.004 1.714-3.151 2.436-3.222-2.429zM6.991 26.344h5.284v1.15H6.991v-1.15zM8.597 20.11l-.684.924 4.248 3.142.684-.924-4.248-3.143z"/><path d="M24.727 21.034l-.684-.924-4.248 3.143.684.924 4.248-3.143z"/></symbol></defs></svg>