<svg aria-hidden="true" style="position: absolute; width: 0; height: 0; overflow: hidden;" version="1.1" xmlns="http://www.w3.org/2000/svg" xmlns:xlink="http://www.w3.org/1999/xlink">
<defs>
<symbol id="icon-services8" viewBox="0 0 32 32">
<path d="M3.657 4.114v1.099h0.001v2.096c0 1.262 1.023 2.286 2.286 2.286l5.973-0-0.013 7.493c-0.001 0.476 0.222 0.925 0.603 1.21l3.156 2.368v5.677h-0.013v1.114h13.116v-1.114h-12.004v-5.659l3.142-2.386c0.375-0.284 0.595-0.727 0.596-1.197l0.013-7.507h5.966c1.262 0 2.286-1.023 2.286-2.286l-0-2.096h0.003v-1.099h-25.112zM4.772 8.481v-3.268h22.881v3.268h-22.881zM13.015 17.313l0.016-7.718h6.373l-0.010 4.883h-4.099v1.114h4.097l-0.004 1.714-3.151 2.436-3.222-2.429z"></path>
<path d="M6.991 26.344h5.284v1.15h-5.284v-1.15z"></path>
<path d="M8.597 20.11l-0.684 0.924 4.248 3.142 0.684-0.924-4.248-3.143z"></path>
<path d="M24.727 21.034l-0.684-0.924-4.248 3.143 0.684 0.924 4.248-3.143z"></path>
</symbol>
</defs>
</svg>
