<svg width="70" height="70" viewBox="0 0 70 70" fill="none" xmlns="http://www.w3.org/2000/svg">
<path d="M16.5951 47V46.15H15.7451H11.6673C8.91968 46.15 6.68398 43.9143 6.68398 41.1667V18.75C6.68398 14.3953 10.2293 10.85 14.584 10.85H55.4173C59.7721 10.85 63.3173 14.3953 63.3173 18.75V41.1667C63.3173 43.9143 61.0816 46.15 58.334 46.15H54.2506H53.4007V47V56.5539C53.4007 58.0977 52.1439 59.3544 50.6001 59.3544H19.3957C17.8518 59.3544 16.5951 58.0977 16.5951 56.5539V47ZM53.4007 41.1667V42.0167H54.2506H58.334H59.184V41.1667V18.75C59.184 16.674 57.4973 14.9833 55.4173 14.9833H14.584C12.5075 14.9833 10.8173 16.6735 10.8173 18.75V41.1667V42.0167H11.6673H15.7451H16.5951V41.1667V32.6506C16.5951 31.1067 17.8518 29.85 19.3957 29.85H50.6001C52.1439 29.85 53.4007 31.1067 53.4007 32.6506V41.1667ZM20.5457 54.5539V55.4039H21.3957H48.6037H49.4539L49.4537 54.5537L49.4501 34.6504L49.4499 33.8006H48.6001H21.3957H20.5457V34.6506V54.5539ZM38.8505 25.15V19.85H53.4007V25.15H38.8505Z" fill="#B0B6BF" stroke="white" stroke-width="1.7"/>
<path d="M29.4614 37.4532V35.2036H21.9434V42.7219H24.1929V37.4532L29.4614 37.4532Z" fill="#B0B6BF"/>
<path d="M40.5483 51.7685L40.5483 54.0181L48.0664 54.0181L48.0664 46.4998L45.8168 46.4998L45.8168 51.7685L40.5483 51.7685Z" fill="#B0B6BF"/>
</svg>
