<svg width="56" height="56" viewBox="0 0 56 56" fill="none" xmlns="http://www.w3.org/2000/svg">
<path d="M17.5497 38.2087C17.5497 39.6861 16.3521 40.8837 14.8747 40.8837C13.3973 40.8837 12.1997 39.6861 12.1997 38.2087C12.1997 36.7313 13.3973 35.5337 14.8747 35.5337C16.3521 35.5337 17.5497 36.7313 17.5497 38.2087Z" fill="#F2353F"/>
<path d="M43.7997 38.2087C43.7997 39.6861 42.6021 40.8837 41.1247 40.8837C39.6473 40.8837 38.4497 39.6861 38.4497 38.2087C38.4497 36.7313 39.6473 35.5337 41.1247 35.5337C42.6021 35.5337 43.7997 36.7313 43.7997 38.2087Z" fill="#F2353F"/>
<path fill-rule="evenodd" clip-rule="evenodd" d="M52.5615 10.5004V17.8061L54.0998 17.9531C54.3972 17.9815 54.674 18.0488 54.8932 18.1695C55.0801 18.2725 55.2617 18.431 55.3974 18.7542C55.4671 18.9256 55.4965 19.1153 55.4826 19.3093L55.4782 19.3702V25.0837C55.4782 25.7559 54.9345 26.3004 54.2615 26.3004H52.5615V45.5004C52.5615 47.0081 51.7341 48.3294 50.4789 49.0589L49.6332 49.5505V54.2504C49.6332 54.9244 49.0906 55.467 48.4165 55.467H45.4999C44.8258 55.467 44.2832 54.9244 44.2832 54.2504V49.6337H11.7165V54.2504C11.7165 54.9244 11.1739 55.467 10.4999 55.467H7.5832C6.90917 55.467 6.36654 54.9244 6.36654 54.2504V49.5436L5.52696 49.0508C4.28183 48.3202 3.46154 47.0008 3.46154 45.5004V26.3004H1.74987C1.07694 26.3004 0.533203 25.7559 0.533203 25.0837V19.2504C0.533203 18.6123 1.01973 18.0863 1.65388 18.0358L1.65545 18.0357L1.6971 18.0333C1.73323 18.0313 1.78369 18.0287 1.84051 18.026L3.46154 17.9506V10.5004C3.46154 5.00508 7.93292 0.533691 13.4282 0.533691H42.5949C48.0901 0.533691 52.5615 5.00508 52.5615 10.5004ZM5.89487 47.2004H50.1165V43.4L50.1331 29.217H5.89487V47.2004ZM5.89487 26.7837H26.7949V11.717H5.89487V26.7837ZM29.2282 26.7837H50.1282V11.717H29.2282V26.7837ZM5.4463 9.28369H50.5768L49.0859 6.72726C47.7897 4.5047 45.3859 2.96703 42.5949 2.96703H13.4282C10.6372 2.96703 8.23338 4.5047 6.93719 6.72727L5.4463 9.28369Z" fill="#F2353F"/>
</svg>
