<svg aria-hidden="true" style="position:absolute;width:0;height:0" xmlns="http://www.w3.org/2000/svg" overflow="hidden"><defs><symbol id="icon-services5" viewBox="0 0 35 32"><path d="M7.655 16.753h5.187v1.527H7.655v-1.527z"/><path d="M32.209 25.6h-9.454l3.934 5.245-1.221.916-4.621-6.162H14.29l-4.621 6.162-1.221-.916 3.934-5.245H2.928a2.597 2.597 0 01-2.593-2.593V2.876A2.597 2.597 0 012.928.283h29.281a2.597 2.597 0 012.593 2.593v20.131a2.597 2.597 0 01-2.593 2.593zM1.861 1.809v22.264h31.416l-.002-22.264H1.861z"/></symbol><symbol id="icon-services3" viewBox="0 0 32 32"><path d="M6.971 16.972h8.057v1.39H6.971v-1.39zM6.971 23.638h8.057v1.39H6.971v-1.39z"/><path d="M29.333 21.695h-7.638v7.638a2.365 2.365 0 01-2.362 2.362H2.666a2.365 2.365 0 01-2.362-2.362V12.666a2.365 2.365 0 012.362-2.362h7.638V2.666A2.365 2.365 0 0112.666.304h16.667a2.365 2.365 0 012.362 2.362v16.667a2.365 2.365 0 01-2.362 2.362zm-27.638-10v18.61h18.613l-.004-18.61H1.695zm20 8.61h8.61V1.695h-18.61v8.61h7.638a2.365 2.365 0 012.362 2.362v7.638z"/></symbol><symbol id="icon-services1" viewBox="0 0 32 32"><path d="M16.246.262L31.54 10.409c.14.089.225.25.222.403V21.111a.463.463 0 01-.083.268l-.001.002a.463.463 0 01-.138.133l-.007.004-15.296 10.151a.447.447 0 01-.262.079.451.451 0 01-.261-.081l-.006-.004L.427 21.523a.474.474 0 01-.237-.428V10.812a.445.445 0 01.078-.261.449.449 0 01.132-.13l.013-.008L15.715.258a.539.539 0 01.525.001l.006.004zm7.336 15.098l6.859-4.551-13.998-9.285v9.035l7.139 4.801zm-8.076-4.8V1.524L1.512 10.812l6.855 4.549 7.139-4.801zm-7.982 5.37l-6.391-4.243v8.542l6.391-4.299zm-6.018 5.183l14 9.287v-9.172L8.37 16.494l-6.864 4.619zm7.712-5.19l6.755 4.488 6.762-4.488-6.762-4.546-6.755 4.546zm7.227 5.303V30.4l13.998-9.289-6.86-4.62-7.137 4.734zm7.982-5.296l6.394 4.299v-8.542l-6.394 4.243z"/></symbol><symbol id="icon-services4" viewBox="0 0 34 32"><path d="M7.366 7.316h1.191v15.557H7.366V7.316zM18.181 7.316h1.22v15.557h-1.22V7.316z"/><path d="M26.445 1.006v4.548h4.548a2.5 2.5 0 012.496 2.496v14.088a2.5 2.5 0 01-2.496 2.496h-4.548v2.787a4.264 4.264 0 01-4.257 4.257H4.578a4.264 4.264 0 01-4.257-4.257V1.006c0-.406.328-.735.735-.735H25.71c.406 0 .735.329.735.735zm-1.469 26.416V1.741H1.791v25.681a2.79 2.79 0 002.787 2.787h17.61a2.789 2.789 0 002.787-2.787zm1.469-4.257h5.575V7.024h-5.575v16.141z"/></symbol><symbol id="icon-services7" viewBox="0 0 32 32"><path d="M10.028 21.834a1.529 1.529 0 11-3.058 0 1.529 1.529 0 013.058 0zM25.028 21.834a1.529 1.529 0 11-3.058 0 1.529 1.529 0 013.058 0z"/><path d="M30.035 6v4.175l.879.084c.17.016.328.055.453.124a.628.628 0 01.288.334c.04.098.057.206.049.317l-.003.035v3.265a.695.695 0 01-.695.695h-.971V26a2.35 2.35 0 01-1.19 2.033l-.483.281V31c0 .385-.31.695-.695.695H26a.694.694 0 01-.695-.695v-2.638H6.695V31c0 .385-.31.695-.695.695H4.333A.694.694 0 013.638 31v-2.69l-.48-.282a2.352 2.352 0 01-1.18-2.029V15.028H1a.694.694 0 01-.695-.695V11c0-.365.278-.665.64-.694h.001l.024-.001.082-.004.926-.043V6.001A5.702 5.702 0 017.673.306H24.34a5.702 5.702 0 015.695 5.695zM3.369 26.972h25.27V24.8l.009-8.105H3.369v10.276zm0-11.667h11.943v-8.61H3.369v8.61zm13.333 0h11.943v-8.61H16.702v8.61zm-13.59-10h25.789l-.852-1.461c-.741-1.27-2.114-2.149-3.709-2.149H7.673c-1.595 0-2.968.879-3.709 2.149l-.852 1.461z"/></symbol><symbol id="icon-arrow" viewBox="0 0 39 32"><path d="M34.588 16.927H.343v-1.854h34.245L21.53 2.016l1.31-1.31 15.295 15.295L22.84 31.296l-1.31-1.31 13.058-13.058z"/></symbol><symbol id="icon-services6" viewBox="0 0 36 32"><path d="M21.823 16.077a1.972 1.972 0 001.972-1.972v-1.848h-3.943v1.848c0 1.089.883 1.972 1.972 1.972z"/><path d="M11.251.814l-.124.04c-2.383.771-7.058 2.303-9.331 3.048l-.122.04A1.716 1.716 0 00.493 5.581v6.423a1.729 1.729 0 002.147 1.677l4.767-1.191v17.395c0 .954.773 1.728 1.728 1.728h17.284c.956 0 1.728-.774 1.728-1.728V12.49l4.767 1.191a1.727 1.727 0 002.147-1.677V5.581c0-.747-.47-1.405-1.182-1.639-2.223-.729-7.025-2.303-9.451-3.087l-.124-.04a47.055 47.055 0 00-1.34-.424h-.002a5.18 5.18 0 01-.21 1.466l-.005.015a5.187 5.187 0 01-9.942 0l-.005-.015a5.18 5.18 0 01-.21-1.466h-.002a50.63 50.63 0 00-1.339.424zm15.57 2.376c2.348.766 5.076 1.66 6.597 2.159a.234.234 0 01.162.231v6.423a.245.245 0 01-.305.239l-6.608-1.651v19.292c0 .137-.11.247-.247.247H9.136a.246.246 0 01-.247-.247V10.591l-6.608 1.651a.246.246 0 01-.305-.239V5.58c0-.115.068-.2.161-.231l.122-.04c1.543-.505 4.19-1.373 6.476-2.119l2.662-.866a6.668 6.668 0 0012.764 0l2.661.866z"/></symbol><symbol id="icon-services2" viewBox="0 0 37 32"><path d="M30.65 8.114h-8.749v-1.77h8.749v1.77z"/><path d="M6.748 30.539v-7.662H2.814A2.818 2.818 0 010 20.063V4.801c0-2.645 2.155-4.8 4.8-4.8h27.801c2.645 0 4.8 2.155 4.8 4.8v15.262a2.818 2.818 0 01-2.814 2.814h-3.938v7.662a1.33 1.33 0 01-1.328 1.328H8.075a1.33 1.33 0 01-1.328-1.328zM30.65 14.264v6.956h5.095V4.8a3.145 3.145 0 00-3.143-3.143H4.801A3.147 3.147 0 001.658 4.8v16.42h5.091v-6.956a1.33 1.33 0 011.328-1.328h21.246a1.33 1.33 0 011.328 1.328zm-22.37.204v15.866h20.84l-.003-15.866H8.28z"/><path d="M15.296 22.786l1.702 2.269 3.404-4.539 4.426 5.901H12.573l2.723-3.631z"/></symbol>
<symbol id="icon-plus" viewBox="0 0 32 32"><path stroke-width="1.391" d="M16 0v32M0 16h32"/>
<symbol id="icon-search" viewBox="0 0 32 32"><path d="M13.867 26.133c2.461 0 4.723-.846 6.528-2.25l5.862 5.861 1.885-1.885-5.861-5.862a10.53 10.53 0 002.251-6.529c-.006-5.888-4.778-10.66-10.665-10.667h-.001C7.977 4.807 3.205 9.579 3.199 15.468v.001c.007 5.888 4.779 10.659 10.667 10.666h.001zm0-18.666c4.411 0 8 3.587 8 8 0 4.411-3.589 8-8 8-4.413 0-8-3.589-8-8 0-4.413 3.587-8 8-8z"/></symbol>
<symbol id="icon-play" viewBox="0 0 27 32"><path d="M27.429 16L0 31.836V.164L27.429 16z"/></symbol>
</defs></svg>